<svg width="23" height="23" viewBox="0 0 23 23" fill="none" xmlns="http://www.w3.org/2000/svg">
<path d="M22.685 11.2579C22.7002 13.237 22.1936 15.1853 21.2159 16.9068C21.0893 17.1304 20.9552 17.3492 20.8135 17.5631C20.7435 17.6718 20.6526 17.7655 20.546 17.8388C20.4395 17.9122 20.3194 17.9637 20.1928 17.9903C20.0661 18.0169 19.9355 18.0182 19.8084 17.9941C19.6812 17.9699 19.5602 17.9208 19.4522 17.8494C19.3442 17.7782 19.2515 17.6863 19.1794 17.5789C19.1073 17.4716 19.0572 17.3511 19.0321 17.2243C19.007 17.0975 19.0073 16.967 19.0331 16.8403C19.0588 16.7136 19.1095 16.5934 19.1822 16.4864C20.1153 15.0717 20.6472 13.4309 20.7213 11.7384C20.7954 10.0459 20.409 8.36494 19.6031 6.87426C18.7973 5.38357 17.602 4.13881 16.1445 3.27231C14.6869 2.40582 13.0216 1.94996 11.3254 1.95319C8.06505 1.95954 5.17426 3.66901 3.49399 6.22319C2.48952 7.74707 1.95501 9.53182 1.95675 11.3563C1.95849 13.1807 2.4964 14.9645 3.50377 16.4864C3.64659 16.7026 3.69757 16.9666 3.64549 17.2203C3.59341 17.4741 3.44255 17.6968 3.22608 17.8394C3.00962 17.9821 2.74528 18.033 2.49123 17.9809C2.23718 17.9289 2.01422 17.7783 1.8714 17.5621C0.754403 15.8691 0.112811 13.9076 0.013564 11.8825C-0.0856764 9.85738 0.361065 7.84282 1.30717 6.04894C2.25328 4.25504 3.66409 2.74764 5.39234 1.68401C7.12064 0.620389 9.10307 0.0395198 11.1327 0.00201977C11.2041 0.000557268 11.275 6.98019e-05 11.3459 6.98019e-05C14.3434 -0.00609895 17.221 1.17586 19.3468 3.28651C21.4727 5.39719 22.6733 8.26407 22.685 11.2579Z" fill="#494D4B"/>
<path d="M4.50074 13.0746L6.27286 21.8793C6.37924 22.4079 6.89444 22.7502 7.42365 22.644C7.95286 22.5377 8.29566 22.0231 8.18928 21.4946L6.41717 12.6899C6.31079 12.1613 5.79553 11.819 5.26632 11.9252C4.73713 12.0315 4.39436 12.5461 4.50074 13.0746Z" fill="#04D361"/>
<path d="M6.2391 21.6807L5.7898 21.771C5.12223 21.9053 4.42849 21.7797 3.85053 21.42C3.27257 21.0603 2.85403 20.4936 2.68053 19.836C2.66733 19.7852 2.65511 19.7344 2.64484 19.6826L2.00098 16.4878C1.86145 15.7943 2.00332 15.0738 2.3954 14.4848C2.78747 13.8956 3.39768 13.4861 4.09193 13.3462L4.54121 13.2559L5.3293 17.166L6.2391 21.6807Z" fill="#494D4B"/>
<path d="M6.23909 21.6807L5.78985 21.771C5.12222 21.9053 4.42852 21.7797 3.85055 21.42C3.27258 21.0603 2.85405 20.4937 2.68054 19.836C3.63007 19.0145 4.51555 18.1219 5.32929 17.1661L6.23909 21.6807Z" fill="#494D4B"/>
<path d="M21.4477 15.7578L21.2159 16.9068C21.0893 17.1304 20.9552 17.3491 20.8136 17.563C20.7435 17.6717 20.6526 17.7655 20.546 17.8388C20.4395 17.9121 20.3195 17.9636 20.1928 17.9903C20.0661 18.0169 19.9355 18.0182 19.8084 17.994C19.6812 17.9698 19.5602 17.9207 19.4522 17.8494C19.3443 17.7782 19.2515 17.6862 19.1794 17.5789C19.1073 17.4716 19.0572 17.351 19.0321 17.2243C19.007 17.0974 19.0073 16.967 19.0331 16.8403C19.0589 16.7136 19.1095 16.5933 19.1822 16.4863C19.8449 15.4845 20.3076 14.3642 20.5447 13.187C20.9126 13.4949 21.1907 13.8962 21.3496 14.3486C21.5085 14.801 21.5424 15.2878 21.4477 15.7578Z" fill="#494D4B"/>
<path d="M20.2885 4.34671L18.8859 5.74758C18.012 4.5672 16.8722 3.60871 15.5588 2.94955C14.2455 2.2904 12.7952 1.94907 11.3254 1.95315C8.06501 1.9595 5.17428 3.66897 3.49399 6.22314L2.07135 4.80227C3.09708 3.3465 4.45229 2.15304 6.02683 1.31893C7.60132 0.484822 9.35072 0.0336096 11.1328 0.00197832C11.2041 0.000515815 11.275 2.83488e-05 11.3459 2.83488e-05C13.0695 -0.0038279 14.7713 0.385785 16.3211 1.13912C17.871 1.89245 19.228 2.98958 20.2885 4.34671Z" fill="#8257E5"/>
<path d="M16.253 12.6803L14.4809 21.485C14.3745 22.0136 14.7173 22.5282 15.2465 22.6344C15.7757 22.7407 16.2909 22.3983 16.3973 21.8698L18.1694 13.0651C18.2758 12.5366 17.933 12.0219 17.4038 11.9157C16.8746 11.8094 16.3594 12.1518 16.253 12.6803Z" fill="#04D361"/>
<path d="M20.685 16.4878L20.0411 19.6826C19.9013 20.3761 19.4914 20.9857 18.9017 21.3773C18.3119 21.769 17.5905 21.9106 16.8961 21.771L16.4468 21.6807L16.9123 19.3726L18.1447 13.2559L18.594 13.3462C19.2882 13.4863 19.8984 13.8956 20.2909 14.4844C20.345 14.5656 20.3944 14.6496 20.439 14.7363C20.718 15.2753 20.8047 15.893 20.685 16.4878Z" fill="#494D4B"/>
<path d="M20.685 16.4878L20.0411 19.6826C19.9013 20.3761 19.4914 20.9857 18.9017 21.3774C18.3119 21.769 17.5905 21.9106 16.8961 21.771L16.4468 21.6807L16.9123 19.3726C18.2516 17.9585 19.4341 16.4041 20.439 14.7363C20.718 15.2753 20.8047 15.8931 20.685 16.4878Z" fill="#494D4B"/>
</svg>
